<svg xmlns="http://www.w3.org/2000/svg" width="64" height="32" viewBox="0 0 64 32" role="img" aria-label="RunRat frame 4">
  <path fill="none" stroke="#7b5960" stroke-width="3" stroke-linecap="round" d="M15 17C9 16 6 14 3 11"/>
  <path fill="#2b2423" d="M15 17c1-7 8-11 19-11 9 0 16 5 16 12 0 6-7 10-18 10-10 0-17-4-17-11z"/>
  <path fill="#3b3030" d="M22 12c4-3 10-4 17-2 6 2 9 5 9 9-4-3-10-6-17-6-4 0-7-1-9-1z" opacity=".7"/>
  <circle cx="50" cy="12" r="6" fill="#2b2423"/>
  <circle cx="46" cy="7" r="3" fill="#d59aa5"/>
  <circle cx="55" cy="8" r="2.5" fill="#d59aa5"/>
  <circle cx="52" cy="11" r="1.1" fill="#f7efe9"/>
  <path fill="#151313" d="M57 14l5 2-5 2z"/>
  <path fill="none" stroke="#211b1b" stroke-width="2.4" stroke-linecap="round" d="M25 27l-4 3M39 27l3 3"/>
</svg>
