<svg xmlns="http://www.w3.org/2000/svg" width="64" height="32" viewBox="0 0 64 32" role="img" aria-label="RunRat frame 0">
  <path fill="none" stroke="#d88fa2" stroke-width="3" stroke-linecap="round" d="M15 18C9 15 6 17 3 21"/>
  <path fill="#4d3939" d="M16 18c0-7 7-12 18-12 9 0 16 5 16 12 0 6-7 10-18 10-10 0-16-4-16-10z"/>
  <path fill="#6a4b4b" d="M22 13c3-4 9-6 16-4 6 1 10 5 10 9-4-4-10-6-17-6-4 0-7 0-9 1z" opacity=".7"/>
  <circle cx="50" cy="12" r="6" fill="#4d3939"/>
  <circle cx="46" cy="7" r="3" fill="#ffb5c4"/>
  <circle cx="55" cy="8" r="2.5" fill="#ffb5c4"/>
  <circle cx="52" cy="11" r="1.1" fill="#fffaf5"/>
  <path fill="#241b1b" d="M57 14l5 2-5 2z"/>
  <path fill="none" stroke="#3d2b2b" stroke-width="2.4" stroke-linecap="round" d="M26 27l-4 3M38 27l5 2"/>
</svg>
